<?xml version="1.0" encoding="UTF-8" standalone="yes"?><svg xmlns="http://www.w3.org/2000/svg" width="256" height="256" version="1.2" baseProfile="tiny-ps"><title>/Users/josemoranurena/Downloads/wow123.png</title><path d="M0 0L0 256L24 256C24 245.977 28.0221 232.39 40 232L40 224L56 224L56 216L80 216L80 208C74.1596 207.81 72.1902 205.84 72 200C66.1596 199.81 64.1902 197.84 64 192C58.2611 191.685 56.1887 189.764 56 184C46.2312 183.257 50.4467 176.628 47.3966 170.429C45.9827 167.556 42.3379 167.197 41.0324 163.942C35.8222 150.951 39.4399 128.723 45 117L46 119L47 119C46.7254 104.213 60.4495 88.1876 70.4159 79.027C72.5279 77.0858 72.2201 73.8772 75.1481 72.6034C78.7393 71.0412 84.1486 72 88 72L88 64L149 64C157.038 64 167.653 61.348 168 72C175.636 72 183.682 70.2411 184 80C189.84 80.1902 191.81 82.1596 192 88C201.113 89.0242 200 96.6635 200 104C209.328 104.706 208 112.667 208 120C220.304 120.401 216 139.019 216 148C216 152.793 217.163 159.421 215.397 163.946C214.108 167.252 210.543 168.748 209.148 172.054C207.746 175.376 208.131 178.88 205.698 181.791C201.984 186.231 196.563 189.291 192.969 193.545C188.405 198.947 183.452 207.757 176 208L176 216L200 216L200 224L216 224L216 232L224 232L224 240L232 240L232 256L256 256L256 0L0 0z" fill="#fd7e02"></path><path d="M88 64L88 72C84.0564 72 77.9258 70.846 74.3171 72.6034C71.7748 73.8415 71.8682 77.2845 69.723 79.027C60.9955 86.1161 43.5336 106.738 48 119L45 117C38.233 126.831 36.1035 153.366 41.0324 164.856C42.2611 167.72 45.3692 168.006 46.973 170.429C51.0369 176.57 45.3797 183.652 56 184C56.0738 190.19 57.7951 191.849 64 192C64.0747 198.301 65.699 199.925 72 200C72.0747 206.301 73.699 207.925 80 208L80 216L56 216L56 224L40 224L40 232C27.3691 232.15 24 245.497 24 256L33 256C31.7811 250.093 34.2647 248.187 40 248L40 240L48 240L48 232C55.2585 232 62.6533 230.781 66.9144 238.005C69.6802 242.693 68.3185 248.782 73 252L72 255L82 256L82 254L85 255L96 240L110 231L110 230L105 230L110 221L113 220L113 219L110 215L106 215L106 216L108 217L102 214L101 214L99 218L95 215L98 219L93 219L92 220L89 224C88.46 216.427 86.0156 208.325 96 208L96 200C87.4055 200 72.3814 203.711 72 192C62.2411 191.682 64 183.636 64 176L57 176L57 159L49 160C48.7908 150.854 43.3941 129.41 56 128C56.0615 120.472 54.641 112.305 64 112C64.0615 104.472 62.641 96.3048 72 96L72 88L80 88L80 80L101 84L96 72L168 72L168 80L176 80L176 88L184 88L184 96L192 96L192 112L200 112L200 128L208 128L207.397 156.852L201.028 161.599L198.852 171.892L193.317 178.274L191.397 188.852L181.683 198.972L160 200L160 208L168 208L168 224L192 224L192 232L208 232L208 240L216 240L216 248L224 248L224 256L232 256L232 240L224 240L224 232L216 232L216 224L200 224L200 216L176 216L176 208C184.369 207.901 188.16 199.166 193.583 193.545C207.252 179.377 216 168.549 216 148C216 138.679 220.522 120.148 208 120C208 112.364 209.759 104.318 200 104C200 96.4521 201.565 88.5284 192 88C191.925 81.699 190.301 80.0747 184 80C183.88 69.8833 176.04 72 168 72C167.87 61.0386 157.423 64 149 64L88 64z" fill="#1a2427"></path><path d="M96 72C96.0747 78.301 97.699 79.9253 104 80L104 88L120 88L120 96L176 96L176 104L184 104L184 120L192 120L192 160L184 160L184 168L176 168L176 176L168 176L168 184L88 184L88 176L80 176L80 168L72 168L72 176L80 176L80 184L88 184L88 192L104 192L104 208C115.231 208 127.902 206.338 138.98 208.148C146.962 209.452 140.842 215.456 136 216L136 223L120 224C119.646 234.857 112.651 228.87 106.429 233.028C100.916 236.711 88.2159 249.489 88 256L192 256C201.683 256 223.847 260.937 224 248L216 248L216 240L208 240L208 232L192 232L192 224L168 224L168 208L160 208L160 200C168.948 200 183.858 203.963 184 192L191 191L200 160C209.255 159.697 211.765 136.661 206.883 129.604C205.301 127.316 202.091 128.405 200 129C199.995 120.89 202.131 112.12 192 112C192 103.96 194.117 96.1199 184 96C183.925 89.699 182.301 88.0747 176 88C175.925 81.699 174.301 80.0747 168 80C167.873 69.2952 158.307 72 150 72L96 72z" fill="#d9eeee"></path><path d="M167 72L168 73L167 72z" fill="#e7a636"></path><path d="M96 79L97 80L96 79M80 80L80 88L72 88L72 96C62.0096 96.1184 64.0168 103.983 64 112C54.0097 112.118 56.0168 119.983 56 128C43.1782 128.704 48.4368 150.773 49 160L57 159L57 176L64 176C64 184.04 61.8833 191.88 72 192C72.1418 203.963 87.0521 200 96 200L96 208C85.7423 208.122 88.0127 216.078 89 224L92 220L93 219L98 219L95 215L99 218L101 214L102 214L106 216L106 215L110 215L113 219L113 220L110 221L105 230L110 230L110 231C106.59 231.263 105.099 231.679 104 235L105 235C111.065 228.807 119.863 235.58 120 224L136 223L136 216C139.668 215.797 148.2 210.51 140.851 208.318C130.343 205.184 114.982 208 104 208L104 192L88 192L88 184L80 184L80 176L72 176C72 166.639 73.8166 160.606 63 160L64 120C70.8155 117.874 71.947 110.313 72 104C77.5702 103.49 79.6876 101.642 80 96L95 96L102 93L102 94L97 94L97 95C100.194 95.822 103.375 96.9148 104 93L105 93C107.959 97.564 115.087 96 120 96L120 88L104 88L104 80L98 80L101 84C94.3874 79.3514 87.765 80 80 80z" fill="#41979a"></path><path d="M175 80L176 81L175 80z" fill="#e7a636"></path><path d="M102.333 86.6667L102.667 87.3333L102.333 86.6667M89 87L90 88L89 87z" fill="#1a2427"></path><path d="M183 88L184 89L183 88z" fill="#e7a636"></path><path d="M104 89L104 90L107 91L104 89M92.3333 90.6667L92.6667 91.3333L92.3333 90.6667M100 91L101 92L100 91M84 93L85 94L84 93M89.6667 93.3333L90.3333 93.6667L89.6667 93.3333M93.6667 93.3333L94.3333 93.6667L93.6667 93.3333M95 96L80 96C79.4095 101.243 77.1356 103.177 72 104C71.8624 110.426 70.0288 116.875 64 120L63 160C68.9943 161.086 71.773 161.031 72 168L80 168L80 176L88 176L88 184L168 184L168 176L176 176L176 168C182.301 167.925 183.925 166.301 184 160L192 160L192 120L184 120L184 104L176 104L176 96L125 96C118.653 96 109.734 97.8345 105 93L104 93L104 96L97 95L97 94L102 94C98.8581 92.7168 96.9643 93.2743 95 96z" fill="#1a2427"></path><path d="M191 96L192 97L191 96M55 102L56 103L55 102z" fill="#41979a"></path><path d="M88 104L87 114L103.624 116.383L110 112L109 109L103 110L104 106L88 104z" fill="#d9eeee"></path><path d="M101 104L101 105L104 106L103 110L109 109L110 112C102.293 113.431 95.029 120.2 87 112L80 112L79 128L75 128L75 138L79 131L80 134L81 134L81 127L85 128L89 126C90.7374 122.96 93.8113 118.036 89 117L89 116L119 122L119 116L123 116L121 122C128.117 124.602 140.287 125.941 148 126.833C151.551 127.244 156.155 127.945 157 124C151.786 124.95 149.108 124.471 145 121L154 120L151 116L150 120C145.096 119.005 143.612 118.948 142 114L142 109C150.403 107.435 157.278 108.143 165 112L155 118L172 123L174 124L176 130L177 130C175.697 122.98 176.882 113.404 168 112C167.302 102.827 159.228 104 152 104L101 104z" fill="#e7a636"></path><path d="M164 104L165 105L164 104z" fill="#fd7e02"></path><path d="M112.333 106.667L112.667 107.333L112.333 106.667M142 106L143 107L142 106M148 106L149 107L148 106M142 109L142 114C142.905 119.344 144.928 119.671 150 120L151 116L154 120L145 121C148.468 125.164 151.938 125.201 157 124L168 131L173 130L173 131L171 132L180 132L174 124L172 123L155 118L165 112C158.206 107.335 149.774 107.129 142 109z" fill="#d9eeee"></path><path d="M126.333 108.667L126.667 109.333L126.333 108.667z" fill="#fd7e02"></path><path d="M100 109L101 110L100 109z" fill="#e7a636"></path><path d="M110 109L111 110L110 109z" fill="#d9eeee"></path><path d="M94 111L95 112L94 111z" fill="#e7a636"></path><path d="M85 112L86 113L85 112M172 112L173 113L172 112z" fill="#fd7e02"></path><path d="M199 112L200 113L199 112z" fill="#41979a"></path><path d="M108 113L107 117L108 117L108 113M141.333 115.667L141.667 116.333L141.333 115.667M167 115L169 118L167 115z" fill="#d9eeee"></path><path d="M174 115L175 116L174 115z" fill="#41979a"></path><path d="M89 116L90 117L89 116z" fill="#fd7e02"></path><path d="M90 116L91 117L90 116z" fill="#1a2427"></path><path d="M91 116C91.4412 119.653 91.0374 123.97 87 125L90 133L95 130L95 129L92 122L100 129L97 125L98 122L95 117L91 116z" fill="#fd7e02"></path><path d="M119 116L119 122L123 116L119 116z" fill="#d9eeee"></path><path d="M93 117L98 122L97 125L100 129L93 125L95 129L95 130L91 134L90 134L82 128L82 134L79 133L80 141L85 142L87 137L88 137L89 141L84 143L85 147L89 147L88 154L89 154L88 149L96 146L95 134L98 133L104 137L100 136L102 142L106 141L104 145L99 141L100 147L97 145L97 158L100 158L99 156L102 153L107 154L104 158C104.513 160.475 104.604 160.575 107 160C109.652 163.632 129.82 163.639 133 160L148 159L146 152L143 153L143 152L151 153L149 149L154 150L155 153L160 153L160 150C166.775 149.075 167.535 144.923 169 139L164 144L166 147L161 146L162 148L161 145L161 144L155 144L151 142L148 143L149 141C146.432 141 139.063 135.045 142 132.167C144.234 129.977 155.499 129.092 159 129L159 128C148.53 126.399 127.563 118.888 118 124L118 121L93 117z" fill="#1a2427"></path><path d="M98 117L99 118L98 117z" fill="#fd7e02"></path><path d="M199 117L200 118L199 117z" fill="#e7a636"></path><path d="M47 118L48 119L47 118M100 118L101 119L100 118z" fill="#41979a"></path><path d="M101 118L102 119L101 118M104 118L105 119L104 118z" fill="#fd7e02"></path><path d="M125 118L125 122L130 120L125 118M151 118L152 119L151 118z" fill="#d9eeee"></path><path d="M175 118L176 119L175 118z" fill="#fd7e02"></path><path d="M199 118L200 119L199 118z" fill="#41979a"></path><path d="M107 119L108 120L107 119z" fill="#fd7e02"></path><path d="M128 119L129 120L128 119M199 119L200 120L199 119z" fill="#e7a636"></path><path d="M103 120L104 121L103 120M111 120L112 121L111 120z" fill="#41979a"></path><path d="M112 120L113 121L112 120z" fill="#fd7e02"></path><path d="M115 121L116 122L115 121z" fill="#41979a"></path><path d="M92 122L96 125L92 122z" fill="#e7a636"></path><path d="M117 122L119 124L119 122L117 122M120.667 122.333L121.333 122.667L120.667 122.333z" fill="#41979a"></path><path d="M154 122L155 123L154 122M96 123L97 124L96 123z" fill="#e7a636"></path><path d="M131 123L132 124L131 123z" fill="#41979a"></path><path d="M132 123L133 124L132 123M136 123L137 124L136 123M138 124L139 125L138 124M142 125L142 126L145 126L142 125z" fill="#fd7e02"></path><path d="M155 125L156 126L155 125z" fill="#d9eeee"></path><path d="M169 125L169 127L171 127L169 125z" fill="#e7a636"></path><path d="M85 126L86 127L85 126z" fill="#fd7e02"></path><path d="M86 126L86 128L88 126L86 126z" fill="#1a2427"></path><path d="M102 126L102 128L104 128L102 126M145 126L146 127L145 126M150.667 126.333L151.333 126.667L150.667 126.333M81.6667 127.333L82.3333 127.667L81.6667 127.333z" fill="#fd7e02"></path><path d="M83 127L88 130L88 127L83 127z" fill="#41979a"></path><path d="M147 127L148 128L147 127M153 127L153 128L157 128L153 127M158 127C158 132.02 144.024 129.06 141.167 132.167C137.976 135.635 146.576 141.391 149 141L148 143L151 142C154.5 145.258 164.796 140.347 169 139L168 145L171 147L172 147L172 138L167 138L166 133L161 134L163 136L160 141L157 141L151 134L151 140L145 132L163 132L158 127z" fill="#fd7e02"></path><path d="M159 127L159 128L165 132L177 132L177 131L173 131L173 130L168 131C166.517 126.782 163.037 127.037 159 127z" fill="#e7a636"></path><path d="M81 128L82 129L81 128z" fill="#41979a"></path><path d="M87.6667 128.333L88.3333 128.667L87.6667 128.333z" fill="#e7a636"></path><path d="M132 128L133 129L132 128M161 128L162 129L161 128M177 128L177 130L180 130L180 128L177 128z" fill="#41979a"></path><path d="M200 128L201 129L200 128z" fill="#e7a636"></path><path d="M207 128L208 129L207 128z" fill="#41979a"></path><path d="M79 129L80 130L79 129z" fill="#d9eeee"></path><path d="M161 129C163.911 132.686 167.267 134.808 172 135L161 129z" fill="#1a2427"></path><path d="M163 129L164 130L163 129z" fill="#41979a"></path><path d="M164 129L165 130L164 129z" fill="#fd7e02"></path><path d="M80 130L81 131L80 130M132 130L132 131L136 131L132 130z" fill="#41979a"></path><path d="M145 132L151 140L151 134L157 141L160 141L161 134L164 133C158.331 128.158 151.663 132.417 145 132z" fill="#e7a636"></path><path d="M165 130L166 131L165 130z" fill="#fd7e02"></path><path d="M79 131L80 132L79 131z" fill="#41979a"></path><path d="M166 131L167 132L166 131z" fill="#fd7e02"></path><path d="M176 133L179 133L178 131L176 133z" fill="#41979a"></path><path d="M178 131L179 132L178 131z" fill="#e7a636"></path><path d="M78 132L75 144L83 142L80 141L80 132L78 132z" fill="#fd7e02"></path><path d="M81 132L82 133L81 132z" fill="#41979a"></path><path d="M207 132L208 133L207 132z" fill="#e7a636"></path><path d="M81 133L82 134L81 133z" fill="#fd7e02"></path><path d="M90 133L91 134L90 133M98 133L99 134L98 133M105 133L106 134L105 133z" fill="#41979a"></path><path d="M164 133L165 134L164 133z" fill="#e7a636"></path><path d="M170 133L171 134L170 133M174 133L172 134L172 135L174 133z" fill="#41979a"></path><path d="M172 136L172 138L180 136L180 134L172 136z" fill="#d9eeee"></path><path d="M179 133L180 134L179 133z" fill="#e7a636"></path><path d="M207 133L207 136L208 136L207 133M95 134L94 138L95 138L97 134L95 134z" fill="#41979a"></path><path d="M98 134L96 135L96 136L98 134z" fill="#fd7e02"></path><path d="M167 134L167 138L174 136L174 135L171 137L170 137L167 134z" fill="#e7a636"></path><path d="M168 134L169 135L168 134M88 135L89 138L90 138L90 135L88 135M99 135L102 139L100 136L104 137L99 135z" fill="#41979a"></path><path d="M107 135L108 136L107 135z" fill="#fd7e02"></path><path d="M114 135L114 139C116.253 138.549 120.708 138.17 120 141L121 141L122 139L114 135M119 135L120 136L119 135z" fill="#41979a"></path><path d="M159 135L160 136L159 135z" fill="#d9eeee"></path><path d="M169 135L170 136L169 135z" fill="#41979a"></path><path d="M171 135L172 136L171 135z" fill="#fd7e02"></path><path d="M192 135L193 136L192 135z" fill="#41979a"></path><path d="M89 136L90 137L89 136z" fill="#fd7e02"></path><path d="M96 140L98 138L102 141C100.203 138.375 95.8725 134.196 96 140z" fill="#e7a636"></path><path d="M107 136L108 137L107 136M107 140L107 142L109 142L108 144L112 145L112 144L110 143L112 138L111 138L111 141L110 141L112 137L107 140z" fill="#41979a"></path><path d="M165 136L166 137L165 136z" fill="#e7a636"></path><path d="M170 136L171 137L170 136M174 139L179 151L180 151L180 146L176 142L180 145L180 136L174 139z" fill="#41979a"></path><path d="M207 136L208 137L207 136z" fill="#e7a636"></path><path d="M87 137L82 150L86 150L85 154L79 152L81 160L85 160L85 159L82 159L82 158L88 163L91 162L90 153L91 153L90 157L94 158L94 159L91 160L102 160L107 160L104 158L107 154L102 153L100 158L97 158L97 157L95 142L99 143L98 147L101 146C99.5876 142.022 98.1133 140.148 94 139L96 146L91 149L92 153L91 151L90 151L89 154L88 154L89 147L85 147L84 143L89 141L87 137M127 137L129 139L127 137M132 137L135 139L135 138L132 137z" fill="#41979a"></path><path d="M176 137L177 138L176 137z" fill="#e7a636"></path><path d="M97 138L98 139L97 138z" fill="#41979a"></path><path d="M163.667 138.333L164.333 138.667L163.667 138.333M172 138L172 143L173 143L172 138z" fill="#e7a636"></path><path d="M84 139L85 140L84 139z" fill="#41979a"></path><path d="M87 139L88 140L87 139z" fill="#e7a636"></path><path d="M97 139L98 140L97 139z" fill="#1a2427"></path><path d="M98 139L99 140L98 139M100.667 139.333L101.333 139.667L100.667 139.333z" fill="#fd7e02"></path><path d="M104 139L105 140L104 139z" fill="#41979a"></path><path d="M108 139L109 140L108 139M110.333 139.667L110.667 140.333L110.333 139.667z" fill="#e7a636"></path><path d="M120 139L121 140L120 139z" fill="#fd7e02"></path><path d="M141 139L142 140L141 139z" fill="#41979a"></path><path d="M148 139L149 140L148 139z" fill="#e7a636"></path><path d="M166 139L158 144L161 143L159 145L159 146L162 148L161 146L162 146L166 147L166 146L163 145L163 144L166 145L165 141L166 141L166 143L167 143L166 139M102 140L103 141L102 140M168.333 140.667L168.667 141.333L168.333 140.667z" fill="#41979a"></path><path d="M173.333 140.667L173.667 141.333L173.333 140.667z" fill="#fd7e02"></path><path d="M177 140L178 141L177 140z" fill="#e7a636"></path><path d="M101 141L104 145L106 141L101 141M115 141L114 142L114 144L118 145L117 150L123 144L122 144L121 146L121 142L115 141M127 141L132 142L132 141L127 141z" fill="#41979a"></path><path d="M161.667 141.333L162.333 141.667L161.667 141.333M165 141L166 142L165 141z" fill="#1a2427"></path><path d="M87 142L88 143L87 142z" fill="#41979a"></path><path d="M95 142L99 144L95 142z" fill="#e7a636"></path><path d="M121 142L120 144L122 144L121 142z" fill="#fd7e02"></path><path d="M122 142L123 143L122 142z" fill="#41979a"></path><path d="M163 142L164 143L163 142M165.333 142.667L165.667 143.333L165.333 142.667z" fill="#e7a636"></path><path d="M173 142L174 143L173 142z" fill="#41979a"></path><path d="M176 142L179 146L176 142z" fill="#d9eeee"></path><path d="M207 142L208 143L207 142M76 146L76 147L79 147L79 151L75 150L75 151L84 151L84 152L81 152L81 153L85 154L86 150L82 150L82 143L76 146M87 143L88 144L87 143z" fill="#e7a636"></path><path d="M117 143L118 144L117 143z" fill="#1a2427"></path><path d="M147 143C143.386 147.53 141.055 145.689 136 145L136 146L146 149L147 143M154 143L155 144L154 143M156 143L157 144L156 143z" fill="#41979a"></path><path d="M160 143L161 144L160 143z" fill="#e7a636"></path><path d="M85 144L85 146L87 146L87 144L85 144z" fill="#41979a"></path><path d="M121 144L122 145L121 144z" fill="#e7a636"></path><path d="M124.667 144.333L125.333 144.667L124.667 144.333z" fill="#41979a"></path><path d="M163 144L164 145L163 144M169 144L168 147L169 149L173 151L169 144z" fill="#e7a636"></path><path d="M172 144L173 145L172 144M207 144L208 145L207 144z" fill="#41979a"></path><path d="M121 145L122 146L121 145z" fill="#1a2427"></path><path d="M130 145L131 146L130 145M155 146L155 147L159 147L155 146z" fill="#41979a"></path><path d="M179 145L180 146L179 145z" fill="#e7a636"></path><path d="M60 146L60 149L62 149L62 146L60 146z" fill="#1a2427"></path><path d="M75 146L79 151L79 147L75 146z" fill="#d9eeee"></path><path d="M118 146L117 148L118 146z" fill="#1a2427"></path><path d="M146 146L147 147L146 146z" fill="#e7a636"></path><path d="M153 146L154 147L153 146M167 146L160 150L160 151L162 154L161 154L155 153L154 150L152 152L149 149L151 153L143 152L143 153L146 152L149 155L146 159L146 160L150 160L150 156L159 160L163 157L162 159L163 159L167 159L163 155C167.295 154.164 169.175 156.191 171 160L176 158L180 160L176 149L172 151L167 146M88 150L93 148L88 150z" fill="#41979a"></path><path d="M93 147L89 149L89 150L91 153L92 153L91 149L93 147z" fill="#e7a636"></path><path d="M169 147L170 148L169 147z" fill="#d9eeee"></path><path d="M108.667 148.333L109.333 148.667L108.667 148.333z" fill="#fd7e02"></path><path d="M122 148L123 149L122 148z" fill="#41979a"></path><path d="M139 148L139 149L142 149L139 148z" fill="#e7a636"></path><path d="M157.333 148.667L157.667 149.333L157.333 148.667M171.667 148.333L172.333 148.667L171.667 148.333M139.667 149.333L140.333 149.667L139.667 149.333M155 149L156 150L155 149z" fill="#41979a"></path><path d="M165.333 149.667L165.667 150.333L165.333 149.667z" fill="#d9eeee"></path><path d="M96 150L97 154L98 154L96 150M164 150L165 151L164 150M207 150L208 151L207 150z" fill="#e7a636"></path><path d="M56 151L57 152L56 151z" fill="#1a2427"></path><path d="M75 151L76 152L75 151z" fill="#41979a"></path><path d="M80 151L80 152L84 152L80 151M91 151L92 152L91 151z" fill="#d9eeee"></path><path d="M122 151L123 152L122 151z" fill="#41979a"></path><path d="M161 151L161 154L162 154L161 151z" fill="#d9eeee"></path><path d="M192 151L193 152L192 151M207 151L207 154L208 154L207 151z" fill="#41979a"></path><path d="M50.3333 152.667L50.6667 153.333L50.3333 152.667M94.3333 152.667L94.6667 153.333L94.3333 152.667z" fill="#1a2427"></path><path d="M124 152L125 153L124 152z" fill="#41979a"></path><path d="M90 153L90 161L91 161L90 153M158 153L159 154L158 153M175 153L176 154L175 153z" fill="#e7a636"></path><path d="M60 154L62 157L60 154z" fill="#1a2427"></path><path d="M96 154L94 155L94 156L96 154z" fill="#e7a636"></path><path d="M110 154L107 157L107 158L112 158L116 156L110 154M141 159L143 154C139.305 154.608 137.484 156.405 141 159z" fill="#41979a"></path><path d="M160 154L161 155L160 154M163 154L164 155L163 154z" fill="#e7a636"></path><path d="M173 154L172 157L173 154z" fill="#d9eeee"></path><path d="M50 155L53 158L53 157L50 155z" fill="#1a2427"></path><path d="M86 155L87 156L86 155z" fill="#e7a636"></path><path d="M89 155L90 156L89 155z" fill="#d9eeee"></path><path d="M148.333 155.667L148.667 156.333L148.333 155.667M153 155L154 156L153 155z" fill="#e7a636"></path><path d="M155 155L157 157L157 155L155 155z" fill="#1a2427"></path><path d="M164 155L165 156L164 155M172 155L173 156L172 155M175 155L176 156L175 155M177 155L178 156L177 155z" fill="#e7a636"></path><path d="M118 160L122 156L118 160z" fill="#41979a"></path><path d="M150 156L150 160L152 160L153 157L150 156z" fill="#1a2427"></path><path d="M177.667 156.333L178.333 156.667L177.667 156.333M90 157L94 159L94 158L90 157z" fill="#d9eeee"></path><path d="M126 157L126 159L128 157L126 157z" fill="#41979a"></path><path d="M128 157L127 159L129 159L128 157z" fill="#e7a636"></path><path d="M129 157L129 159L131 159L131 157L129 157z" fill="#41979a"></path><path d="M131 157L135 159L135 158L131 157z" fill="#e7a636"></path><path d="M132 157L133 158L132 157z" fill="#41979a"></path><path d="M156 157L157 158L156 157M158 157L159 158L158 157z" fill="#e7a636"></path><path d="M161 157L161 159L163 157L161 157z" fill="#1a2427"></path><path d="M179 157L180 158L179 157z" fill="#e7a636"></path><path d="M207.333 157.667L207.667 158.333L207.333 157.667z" fill="#41979a"></path><path d="M82 158L82 159L86 160L82 158z" fill="#e7a636"></path><path d="M87 158L88 159L87 158z" fill="#1a2427"></path><path d="M113.667 158.333L114.333 158.667L113.667 158.333z" fill="#41979a"></path><path d="M152 158L150 160L150 161L169 160L169 159L152 158z" fill="#fd7e02"></path><path d="M153 158L154 159L153 158M159.667 158.333L160.333 158.667L159.667 158.333z" fill="#e7a636"></path><path d="M164.667 158.333L165.333 158.667L164.667 158.333M174.667 158.333L175.333 158.667L174.667 158.333z" fill="#1a2427"></path><path d="M99 159L100 160L99 159z" fill="#e7a636"></path><path d="M107 159L108 160L107 159M141.667 159.333L142.333 159.667L141.667 159.333z" fill="#41979a"></path><path d="M156.667 159.333L157.333 159.667L156.667 159.333z" fill="#1a2427"></path><path d="M170 159L171 160L170 159z" fill="#e7a636"></path><path d="M174 159L175 160L174 159z" fill="#fd7e02"></path><path d="M206 159L207 160L206 159z" fill="#41979a"></path><path d="M101 160L101 162L103 162L101 160z" fill="#1a2427"></path><path d="M133 160L137 162L137 161L133 160z" fill="#fd7e02"></path><path d="M106 162C100.972 162.044 95.5911 162.201 92 166L96 169L128 171L128 167L129 167L129 170L147 170L146 167L147 167C151.203 172.828 161.75 169.052 168 169L168 165L167 165L164 168L165 163L168 164C166.46 158.156 159.579 159.536 157 164L149 163L153 161C143.38 156.732 127.579 163.272 116.917 162.778C113.673 162.627 106.786 167.333 106 162z" fill="#e7a636"></path><path d="M200 160L201 161L200 160z" fill="#41979a"></path><path d="M88 161L89 162L88 161z" fill="#e7a636"></path><path d="M105 163L105 164L128 163C121.328 160.199 111.853 161.202 105 163M139 161L140 162L139 161z" fill="#fd7e02"></path><path d="M138 163L138 164L146 165L148 162L138 163M149 163L157 164L160 162L149 163z" fill="#d9eeee"></path><path d="M94.6667 162.333L95.3333 162.667L94.6667 162.333M97.6667 162.333L98.3333 162.667L97.6667 162.333M92 163L91 167L89 165L88 165L88 169L113 170L113 169L96 169L92 166L94 163L92 163M96 163L97 164L96 163z" fill="#fd7e02"></path><path d="M128 165L131 163L128 165M165 163L164 168C167.307 167.042 167.905 165.012 165 163M115 164L117 167L115 164M118 164L124 167L124 166L118 164M126 164L126 169L127 169L126 164z" fill="#d9eeee"></path><path d="M95 165L96 166L95 165z" fill="#fd7e02"></path><path d="M159 165L160 166L159 165M164 165L165 166L164 165z" fill="#d9eeee"></path><path d="M90 166L91 167L90 166z" fill="#41979a"></path><path d="M131 166L132 167L131 166M135.667 166.333L136.333 166.667L135.667 166.333z" fill="#d9eeee"></path><path d="M128 167L130 171L128 167M146 167L148 170L146 167z" fill="#fd7e02"></path><path d="M183 167L184 168L183 167z" fill="#41979a"></path><path d="M119 168L120 169L119 168M136 168L137 169L136 168M138.667 168.333L139.333 168.667L138.667 168.333z" fill="#fd7e02"></path><path d="M199.333 168.667L199.667 169.333L199.333 168.667M89 169L89 170L93 170L89 169z" fill="#41979a"></path><path d="M99.6667 169.333L100.333 169.667L99.6667 169.333z" fill="#e7a636"></path><path d="M121 172L121 171L124 171L124 170L116 170L116 171L118 173L168 172L168 171C166.04 170.347 165.446 170 168 170L154 170.776L121 172z" fill="#41979a"></path><path d="M137 170L138 171L137 170M139 170L139 171L142 171L139 170M143 170L144 171L143 170z" fill="#fd7e02"></path><path d="M149 170L149 171L157 171L149 170z" fill="#1a2427"></path><path d="M166 170L167 171L166 170z" fill="#d9eeee"></path><path d="M167 170L168 171L167 170z" fill="#e7a636"></path><path d="M112.667 171.333L113.333 171.667L112.667 171.333z" fill="#41979a"></path><path d="M121 171L121 172L144 172L121 171M146 171L147 172L146 171z" fill="#1a2427"></path><path d="M198 171L197 175L198 171z" fill="#41979a"></path><path d="M58 173L59 174L58 173z" fill="#1a2427"></path><path d="M196 175L197 176L196 175M193 176L194 177L193 176M192 177L192 180L193 180L192 177M191 184L191 191L192 191L191 184M190 191L191 192L190 191M184 192L185 193L184 192z" fill="#41979a"></path><path d="M104 209L105 210L104 209M104 212L105 213L104 212M90 216L91 217L90 216z" fill="#1a2427"></path><path d="M101 216L97 221L103 222L103 219L100 221L99 220L103 218L101 216M108 217L105 223L110 223L111 220L111 219L108 217z" fill="#41979a"></path><path d="M108 218L107 222L110 219L108 218z" fill="#1a2427"></path><path d="M108 219L109 220L108 219M93 220L96 223L93 220z" fill="#41979a"></path><path d="M98 220L99 221L98 220z" fill="#1a2427"></path><path d="M64 224L65 229L66 229L67 226L68 230L67 231L65 230L65 231L65 232L70 231L69 227L72 224L64 224M105.667 224.333L106.333 224.667L105.667 224.333M78 225L79 226L78 225M83 225L83 226L87 226L83 225M102 225L104 227L104 225L102 225z" fill="#41979a"></path><path d="M118 225L119 226L118 225M68 226L69 227L68 226M111 227L112 228L111 227M68 228L69 229L68 228z" fill="#1a2427"></path><path d="M103 228L100 229L100 230C102.048 230.242 103.868 230.316 103 228M48 232L48 240L40 240L38 248L39 251L37 248C32.1724 248.806 30.0428 254.827 36.0586 255.852C50.1987 258.261 66.6421 256 81 256L81 255L72 255L73 252C68.3413 247.344 70.0539 240.167 65.581 235.148C61.4238 230.483 53.6301 232 48 232M96 236L97 237L96 236M103 236L100 240L103 236M96 243L99 240L96 243M75 244L76 245L75 244M95 244L91 247L91 248L95 244z" fill="#41979a"></path><path d="M95 246L96 247L95 246z" fill="#e7a636"></path><path d="M84 247L82 253C84.4073 251.271 85.2508 249.729 84 247z" fill="#41979a"></path><path d="M37 248L38 249L37 248z" fill="#e7a636"></path><path d="M76 248L77 249L76 248M88 250L91 248L88 250z" fill="#41979a"></path><path d="M36 249L36 250L39 251L36 249z" fill="#d9eeee"></path><path d="M72.6667 250.333L73.3333 250.667L72.6667 250.333M76 250L77 251L76 250M80 250L80 253L81 253L80 250z" fill="#41979a"></path><path d="M36.3333 251.667L36.6667 252.333L36.3333 251.667z" fill="#d9eeee"></path><path d="M87 251L85 255L83 254L82 254L88 256L87 251z" fill="#41979a"></path><path d="M33 252L34 253L33 252z" fill="#d9eeee"></path><path d="M69 252L68 255L69 252z" fill="#1a2427"></path><path d="M74 252L76 254L76 252L74 252z" fill="#41979a"></path><path d="M65.3333 253.667L65.6667 254.333L65.3333 253.667z" fill="#1a2427"></path><path d="M223 255L224 256L223 255z" fill="#e7a636"></path></svg>