<svg width="326" height="58" viewBox="0 0 326 58" fill="none" xmlns="http://www.w3.org/2000/svg">
<rect x="-0.00012207" width="326" height="58" rx="29" fill="#0A0B0D"/>
<path d="M37.9996 17H31.9999V27.7581C32.397 33.418 36.1126 38.2869 41.4286 40.1153L44.0001 41V17H37.9996Z" fill="url(#paint0_linear_2_252)"/>
<path d="M50.0003 17H43.9999V41L46.5714 40.1138C51.8887 38.2854 55.603 33.4159 56.0001 27.756V17H49.9996H50.0003Z" fill="url(#paint1_linear_2_252)"/>
<path d="M72.2296 37.3C68.9896 37.3 67.1096 35.22 67.1096 32.4V31.1H69.7896V32.32C69.7896 34 70.7096 34.96 72.2296 34.96C73.7296 34.96 74.6296 34 74.6296 32.32V22.92H77.3296V32.4C77.3296 35.22 75.4296 37.3 72.2296 37.3ZM84.8292 37.28C81.3292 37.28 79.5692 34.7 79.5692 31.76C79.5692 28.82 81.3492 26.24 84.8292 26.24C88.2892 26.24 90.0692 28.84 90.0692 31.76C90.0692 34.7 88.3092 37.28 84.8292 37.28ZM87.4692 32.22V31.32C87.4692 29.44 86.3092 28.38 84.8292 28.38C83.3292 28.38 82.1692 29.48 82.1692 31.32V32.22C82.1692 34.04 83.3292 35.14 84.8292 35.14C86.3092 35.14 87.4692 34.08 87.4692 32.22ZM94.3199 25.3H94.1399C93.2399 25.3 92.5399 24.6 92.5399 23.76C92.5399 22.88 93.2399 22.2 94.1399 22.2H94.3199C95.1999 22.2 95.8999 22.88 95.8999 23.76C95.8999 24.6 95.1999 25.3 94.3199 25.3ZM91.2999 28.6V26.52H95.5199V37H92.9199V28.6H91.2999ZM100.835 30.84V37H98.2351V26.52H100.675V28.2H100.695C101.255 26.9 102.475 26.24 103.955 26.24C106.195 26.24 107.835 27.8 107.835 30.44V37H105.235V30.72C105.235 29.18 104.215 28.44 103.095 28.44C101.915 28.44 100.835 29.22 100.835 30.84ZM119.8 37.3C116.24 37.3 114 35.46 113.96 32.82H116.68C116.72 34.34 117.9 35.16 119.82 35.16C121.74 35.16 122.8 34.3 122.8 33.08C122.8 31.9 121.98 31.52 120.4 31.28L118.54 31C116.04 30.62 114.28 29.46 114.28 26.88C114.28 24.52 116.28 22.6 119.78 22.6C123.36 22.6 125.26 24.54 125.32 26.8H122.6C122.56 25.6 121.7 24.74 119.76 24.74C117.84 24.74 117 25.64 117 26.66C117 27.86 117.86 28.28 119.32 28.5L121.14 28.78C123.62 29.14 125.52 30.18 125.52 32.88C125.52 35.54 123.2 37.3 119.8 37.3ZM126.63 26.52H128.91V23.58H131.51V26.52H134.75V28.64H131.51V34.02C131.51 34.64 131.77 34.9 132.37 34.9H134.75V37H131.77C129.83 37 128.91 36.04 128.91 34.24V28.64H126.63V26.52ZM136.314 29.56C136.534 27.58 138.134 26.24 140.874 26.24C143.274 26.24 145.234 27.28 145.234 29.94V34.28C145.234 34.86 145.454 34.98 145.934 34.98H146.554V37H145.114C143.674 37 143.114 36.34 143.134 35.3V35.2H143.114C142.614 36.46 141.374 37.28 139.654 37.28C137.474 37.28 135.974 36.1 135.974 34.12C135.974 32.08 137.494 31.12 139.954 30.78L141.234 30.58C142.214 30.44 142.634 30.12 142.634 29.46C142.634 28.76 142.174 28.12 140.834 28.12C139.594 28.12 138.954 28.68 138.874 29.56H136.314ZM142.674 32.76V31.78C142.454 31.96 142.054 32.18 141.454 32.26L140.354 32.42C139.194 32.6 138.494 33.06 138.494 33.86V33.98C138.494 34.8 139.134 35.32 140.194 35.32C141.714 35.32 142.674 34.28 142.674 32.76ZM150.757 30.84V37H148.157V26.52H150.597V28.2H150.617C151.177 26.9 152.397 26.24 153.877 26.24C156.117 26.24 157.757 27.8 157.757 30.44V37H155.157V30.72C155.157 29.18 154.137 28.44 153.017 28.44C151.837 28.44 150.757 29.22 150.757 30.84ZM170.244 37H167.804V35.24H167.784C167.184 36.5 166.064 37.28 164.364 37.28C161.344 37.28 159.784 34.72 159.784 31.76C159.784 28.82 161.344 26.24 164.364 26.24C165.944 26.24 167.004 26.94 167.624 28.04H167.644V22.16H170.244V37ZM162.384 32.24C162.384 34.1 163.564 35.16 165.024 35.16C166.484 35.16 167.644 34.06 167.644 32.24V31.32C167.644 29.5 166.484 28.4 165.024 28.4C163.564 28.4 162.384 29.46 162.384 31.32V32.24ZM176.02 22.92H178.84L181.58 32.9H181.62L184.42 22.88H186.94L189.78 32.96H189.82L192.5 22.92H195.12L191.12 37.02H188.52L185.58 26.9H185.54L182.64 37.02H180.16L176.02 22.92ZM198.851 25.3H198.671C197.771 25.3 197.071 24.6 197.071 23.76C197.071 22.88 197.771 22.2 198.671 22.2H198.851C199.731 22.2 200.431 22.88 200.431 23.76C200.431 24.6 199.731 25.3 198.851 25.3ZM195.831 28.6V26.52H200.051V37H197.451V28.6H195.831ZM201.766 26.52H204.046V23.58H206.646V26.52H209.886V28.64H206.646V34.02C206.646 34.64 206.906 34.9 207.506 34.9H209.886V37H206.906C204.966 37 204.046 36.04 204.046 34.24V28.64H201.766V26.52ZM214.566 30.84V37H211.966V22.16H214.506V28H214.526C215.126 26.84 216.266 26.24 217.686 26.24C219.926 26.24 221.566 27.8 221.566 30.44V37H218.966V30.72C218.966 29.18 217.946 28.44 216.826 28.44C215.646 28.44 214.566 29.22 214.566 30.84ZM234.47 34.94C236.41 34.94 237.39 33.84 237.63 32.56H240.43C239.93 35.4 237.73 37.28 234.55 37.28C230.21 37.28 227.91 34.04 227.91 29.96C227.91 25.9 230.21 22.62 234.55 22.62C237.71 22.62 239.91 24.5 240.39 27.18H237.55C237.27 25.86 236.25 24.96 234.47 24.96C232.39 24.96 230.67 26.56 230.67 29.46V30.44C230.67 33.34 232.39 34.94 234.47 34.94ZM242.395 37V26.52H244.875V28.36H244.895C245.155 27.48 246.015 26.5 247.875 26.5H249.155V28.88H247.395C245.615 28.88 244.995 29.74 244.995 31.14V37H242.395ZM256.247 37.84C255.407 40.02 254.267 40.82 252.167 40.82H249.967V38.72H252.047C252.867 38.72 253.247 38.52 253.587 37.6L253.927 36.68L249.867 26.52H252.727L255.287 33.76H255.307L257.847 26.52H260.467L256.247 37.84ZM261.946 26.52H264.386V28.28H264.406C265.006 27.04 266.126 26.24 267.826 26.24C270.846 26.24 272.406 28.8 272.406 31.76C272.406 34.7 270.846 37.28 267.826 37.28C266.226 37.28 265.166 36.58 264.566 35.48H264.546V40.84H261.946V26.52ZM269.806 31.3C269.806 29.42 268.626 28.36 267.166 28.36C265.706 28.36 264.546 29.48 264.546 31.3V32.2C264.546 34.04 265.706 35.12 267.166 35.12C268.626 35.12 269.806 34.08 269.806 32.2V31.3ZM273.192 26.52H275.472V23.58H278.072V26.52H281.312V28.64H278.072V34.02C278.072 34.64 278.332 34.9 278.932 34.9H281.312V37H278.332C276.392 37 275.472 36.04 275.472 34.24V28.64H273.192V26.52ZM287.72 37.28C284.22 37.28 282.46 34.7 282.46 31.76C282.46 28.82 284.24 26.24 287.72 26.24C291.18 26.24 292.96 28.84 292.96 31.76C292.96 34.7 291.2 37.28 287.72 37.28ZM290.36 32.22V31.32C290.36 29.44 289.2 28.38 287.72 28.38C286.22 28.38 285.06 29.48 285.06 31.32V32.22C285.06 34.04 286.22 35.14 287.72 35.14C289.2 35.14 290.36 34.08 290.36 32.22Z" fill="white"/>
<defs>
<linearGradient id="paint0_linear_2_252" x1="37.9996" y1="17" x2="37.9996" y2="41" gradientUnits="userSpaceOnUse">
<stop stop-color="#6100FF"/>
<stop offset="1" stop-color="#C09AFF"/>
</linearGradient>
<linearGradient id="paint1_linear_2_252" x1="50.0003" y1="17" x2="50.0003" y2="41" gradientUnits="userSpaceOnUse">
<stop stop-color="#C09AFF"/>
<stop offset="1" stop-color="#6100FF"/>
<stop offset="1" stop-color="#6100FF"/>
</linearGradient>
</defs>
</svg>
